<?xml version="1.0" encoding="utf-8"?>
<!-- Generator: Adobe Illustrator 16.0.0, SVG Export Plug-In . SVG Version: 6.00 Build 0)  -->
<!DOCTYPE svg PUBLIC "-//W3C//DTD SVG 1.1//EN" "http://www.w3.org/Graphics/SVG/1.1/DTD/svg11.dtd">
<svg version="1.1" xmlns="http://www.w3.org/2000/svg" xmlns:xlink="http://www.w3.org/1999/xlink" x="0px" y="0px"
	 width="737.97px" height="740.97px" viewBox="0 0 737.97 740.97" enable-background="new 0 0 737.97 740.97" xml:space="preserve">
<g id="old2" display="none">
	<g id="XMLID_1_" display="inline">
		<g>
			<path fill="#2884E8" d="M842.566-30.05l-51.501,89.229C751.902,9.194,692.889-24.509,625.889-30.05H842.566z"/>
			<path fill="#2884E8" d="M639.237,436.207l200.069,346.992h-466.11l200.248-346.976c10.724,1.499,21.676,2.281,32.807,2.281
				C617.447,438.505,628.448,437.723,639.237,436.207z"/>
			<path fill="#2884E8" d="M791.065,59.179c31.243,39.864,49.871,90.077,49.871,144.641c0,118.418-87.697,216.351-201.699,232.387
				l-32.872-57.009L791.065,59.179z"/>
			<path fill="#ECA158" d="M791.065,59.179l-184.7,320.019L421.681,58.87c39.163-49.822,98.063-83.378,164.931-88.919h39.277
				C692.889-24.509,751.902,9.194,791.065,59.179z"/>
			<path fill="#ECA158" d="M606.365,379.198l32.872,57.009c-10.789,1.516-21.79,2.298-32.986,2.298
				c-11.131,0-22.083-0.782-32.807-2.281L606.365,379.198z"/>
			<path fill="#2884E8" d="M421.681,58.87l184.684,320.329l-32.921,57.025c-114.083-15.955-201.878-113.92-201.878-232.403
				C371.566,149.109,390.292,98.782,421.681,58.87z"/>
			<path fill="#2884E8" d="M370.409-30.05h216.203C519.744-24.509,460.844,9.048,421.681,58.87L370.409-30.05z"/>
			<path fill="#FFFFFF" d="M573.444,436.224L373.196,783.199l-50.784-88.072c31.797-40.043,50.784-90.696,50.784-145.798
				c0-119.151-88.806-217.573-203.834-232.665L369.463-30.05h0.945l51.272,88.919c-31.39,39.913-50.115,90.24-50.115,144.951
				C371.566,322.304,459.361,420.269,573.444,436.224z M407.42,346.424c0-20.258-16.412-36.669-36.67-36.669
				s-36.669,16.412-36.669,36.669c0,14.798,8.768,27.543,21.383,33.329l0.619,61.197h29.335l-0.619-60.66
				C398.082,374.798,407.42,361.711,407.42,346.424z"/>
			<path d="M370.75,309.754c20.258,0,36.67,16.412,36.67,36.669c0,15.287-9.339,28.374-22.621,33.866l-0.195-19.198h-29.336
				l0.196,18.661c-12.615-5.786-21.383-18.531-21.383-33.329C334.081,326.166,350.493,309.754,370.75,309.754z"/>
			<path d="M384.799,380.29l0.619,60.66h-29.335l-0.619-61.197c4.645,2.151,9.827,3.341,15.287,3.341
				C375.738,383.094,380.48,382.1,384.799,380.29z"/>
			<path d="M384.604,361.092l0.195,19.198c-4.319,1.81-9.062,2.804-14.049,2.804c-5.459,0-10.642-1.189-15.287-3.341l-0.196-18.661
				H384.604z"/>
			<path fill="#2884E8" d="M322.412,695.127l50.784,88.072H158.149C224.626,777.69,283.249,744.477,322.412,695.127z"/>
			<path fill="#2884E8" d="M369.463-30.05L169.362,316.665c-10.104-1.336-20.389-2.021-30.852-2.021
				c-11.571,0-22.947,0.832-34.062,2.461L-95.702-30.05H369.463z"/>
			<path fill="#2884E8" d="M373.196,549.329c0,55.102-18.987,105.755-50.784,145.798L136.767,373.136l32.595-56.471
				C284.39,331.756,373.196,430.178,373.196,549.329z"/>
			<path fill="#ECA158" d="M136.767,373.136l185.646,321.991c-39.163,49.35-97.786,82.563-164.263,88.072h-39.277
				c-67.7-5.606-127.235-39.945-166.382-90.794L136.767,373.136z"/>
			<path fill="#ECA158" d="M169.362,316.665l-32.595,56.471l-32.318-56.031c11.115-1.629,22.491-2.461,34.062-2.461
				C148.973,314.644,159.257,315.328,169.362,316.665z"/>
			<path fill="#2884E8" d="M136.767,373.136L-47.51,692.405c-30.525-39.604-48.665-89.229-48.665-143.076
				c0-118.044,87.16-215.731,200.623-232.225L136.767,373.136z"/>
			<path fill="#2884E8" d="M118.872,783.199H-99.434v-0.815l51.924-89.979C-8.363,743.254,51.171,777.593,118.872,783.199z"/>
		</g>
		<g>
			<path fill="none" stroke="#000000" stroke-width="20" stroke-miterlimit="10" d="M355.464,379.753
				c-12.615-5.786-21.383-18.531-21.383-33.329c0-20.258,16.412-36.669,36.669-36.669s36.67,16.412,36.67,36.669
				c0,15.287-9.339,28.374-22.621,33.866"/>
			<polygon fill="none" stroke="#000000" stroke-width="20" stroke-miterlimit="10" points="384.799,380.29 385.418,440.95 
				356.083,440.95 355.464,379.753 355.268,361.092 384.604,361.092 			"/>
			<polyline fill="none" stroke="#000000" stroke-width="20" stroke-miterlimit="10" points="842.566,-30.05 625.889,-30.05 
				586.612,-30.05 370.409,-30.05 369.463,-30.05 -95.702,-30.05 -96.175,-30.05 			"/>
			<polyline fill="none" stroke="#000000" stroke-width="20" stroke-miterlimit="10" points="842.566,-30.05 791.065,59.179 
				606.365,379.198 573.444,436.224 373.196,783.199 			"/>
			<polyline fill="none" stroke="#000000" stroke-width="20" stroke-miterlimit="10" points="373.196,783.199 322.412,695.127 
				136.767,373.136 104.448,317.104 -95.702,-30.05 -96.175,-30.865 			"/>
			<polyline fill="none" stroke="#000000" stroke-width="20" stroke-miterlimit="10" points="-99.434,783.199 118.872,783.199 
				158.149,783.199 373.196,783.199 839.306,783.199 			"/>
			<polyline fill="none" stroke="#000000" stroke-width="20" stroke-miterlimit="10" points="-99.434,782.384 -47.51,692.405 
				136.767,373.136 169.362,316.665 369.463,-30.05 369.936,-30.865 			"/>
			<polyline fill="none" stroke="#000000" stroke-width="20" stroke-miterlimit="10" points="369.936,-30.865 370.409,-30.05 
				421.681,58.87 606.365,379.198 639.237,436.207 839.306,783.199 			"/>
			<path fill="none" stroke="#000000" stroke-width="20" stroke-miterlimit="10" d="M791.065,59.179
				c31.243,39.864,49.871,90.077,49.871,144.641c0,118.418-87.697,216.351-201.699,232.387c-10.789,1.516-21.79,2.298-32.986,2.298
				c-11.131,0-22.083-0.782-32.807-2.281c-114.083-15.955-201.878-113.92-201.878-232.403c0-54.711,18.726-105.038,50.115-144.951
				c39.163-49.822,98.063-83.378,164.931-88.919c6.471-0.538,13.022-0.815,19.639-0.815c6.617,0,13.169,0.277,19.639,0.815
				C692.889-24.509,751.902,9.194,791.065,59.179z"/>
			<path fill="none" stroke="#000000" stroke-width="20" stroke-miterlimit="10" d="M169.362,316.665
				c115.028,15.092,203.834,113.513,203.834,232.665c0,55.102-18.987,105.755-50.784,145.798
				c-39.163,49.35-97.786,82.563-164.263,88.072c-6.47,0.538-13.022,0.814-19.639,0.814s-13.168-0.276-19.639-0.814
				c-67.7-5.606-127.235-39.945-166.382-90.794c-30.525-39.604-48.665-89.229-48.665-143.076
				c0-118.044,87.16-215.731,200.623-232.225c11.115-1.629,22.491-2.461,34.062-2.461
				C148.973,314.644,159.257,315.328,169.362,316.665z"/>
		</g>
	</g>
	
		<line display="inline" fill="none" stroke="#000000" stroke-width="20" stroke-miterlimit="10" x1="421.671" y1="58.864" x2="641.565" y2="440.242"/>
	
		<line display="inline" fill="none" stroke="#000000" stroke-width="20" stroke-miterlimit="10" x1="791.071" y1="59.172" x2="573.45" y2="436.23"/>
	
		<line display="inline" fill="none" stroke="#000000" stroke-width="20" stroke-miterlimit="10" x1="104.454" y1="317.101" x2="322.417" y2="695.131"/>
	
		<line display="inline" fill="none" stroke="#000000" stroke-width="20" stroke-miterlimit="10" x1="169.362" y1="316.657" x2="-47.514" y2="692.426"/>
	<circle display="inline" stroke="#000000" stroke-width="0.25" stroke-miterlimit="10" cx="-99.434" cy="782.384" r="10.44"/>
	<circle display="inline" stroke="#000000" stroke-width="0.25" stroke-miterlimit="10" cx="839.306" cy="783.199" r="10.26"/>
	<circle display="inline" stroke="#000000" stroke-width="0.25" stroke-miterlimit="10" cx="842.566" cy="-30.05" r="10"/>
	
		<ellipse display="inline" stroke="#000000" stroke-width="0.25" stroke-miterlimit="10" cx="-96.647" cy="-30.865" rx="9.662" ry="9.189"/>
</g>
<g id="old1_1_" display="none">
	<g id="XMLID_2_" display="inline">
		<g>
			<path fill="#FFFFFF" d="M331.246,751.002c0.319,0.269,0.586,0.585,0.804,0.93h6.682c0.991-0.094,1.982-0.192,2.975-0.28
				C338.218,751.449,334.732,751.229,331.246,751.002z"/>
			<path fill="#FFFFFF" d="M449.887,741.729c1.315,0.109,2.631,0.217,3.946,0.314c0.004-0.032,0.01-0.065,0.015-0.098
				C452.529,741.84,451.208,741.761,449.887,741.729z"/>
			<path fill="#FFFFFF" d="M605.583,750.116c3.943-0.213,7.895-0.481,11.844-0.854c-4.575-0.202-9.146-0.488-13.706-0.887
				c0.117,0.574,0.104,1.169-0.015,1.745C604.331,750.117,604.957,750.119,605.583,750.116z"/>
			<path fill="#FFFFFF" d="M654.89,750.283c3.126,0.031,6.252,0.063,9.378,0.099c-2.883-0.113-5.765-0.223-8.648-0.313
				C655.377,750.143,655.132,750.211,654.89,750.283z"/>
			<path fill="#FFFFFF" d="M216.679,729.813c1.849,0.133,3.696,0.287,5.544,0.429c12.112-2.839,24.297-5.346,36.604-7.198
				c24.162-3.638,49.68-5.711,73.525,0.941c3.73,1.041,3.876,6.712,0,7.676c-7.414,1.844-14.858,3.545-22.325,5.127
				c-0.035,0.166-0.075,0.33-0.127,0.492c7.003,0.703,13.958,1.825,20.808,3.361c1.84-0.061,3.68-0.115,5.518-0.187
				c12.737-0.498,25.453-1.765,38.213-1.529c4.815,0.089,9.801,0.298,14.716,0.938c0.238-0.136,0.495-0.257,0.777-0.356
				c6.747-2.399,13.795-3.971,20.945-5.021c0.228-0.198,0.488-0.383,0.789-0.547c19.103-10.395,42.404-11.253,63.644-10.095
				c11.93,0.65,23.778,2.05,35.578,3.812c5.314-0.371,10.626-0.594,15.908-0.678c11.028-0.175,22.112,0.2,33.134,1.219
				c10.965-4.259,24.078-4.589,35.218-4.353c3.293,0.069,6.626,0.2,9.972,0.407c16.292-4.781,33.618-6.482,50.47-6.675
				c20.514-0.235,41.221,1.65,61.2,6.409c2.337,0.557,3.279,2.981,2.701,4.994c7.248,0.235,14.493,0.605,21.716,1.214
				c1.071,0.09,2.146,0.185,3.22,0.282L366.934,103.956L-18.055,742.279c2.597-0.048,5.194-0.076,7.792-0.096
				c0.025-2.899,2.825-5.659,5.69-3.471c1.641,1.253,3.338,2.404,5.079,3.473c2.434,0.02,4.867,0.048,7.3,0.094
				c20.233-1.688,40.555-1.874,60.829-2.916c1.637-0.085,2.743,0.646,3.331,1.696c3.665-0.195,7.33-0.371,10.996-0.503
				c2.696-0.097,3.929,1.878,3.814,3.888c5.529,0.11,11.058,0.24,16.585,0.413c5.257,0.133,10.513,0.271,15.77,0.407
				c21.173-3.058,42.674-4.201,63.951-2.899c0.295-1.301,1.166-2.456,2.691-2.859c9.065-2.4,18.142-4.796,27.254-7.049
				C213.532,730.922,214.794,729.676,216.679,729.813z M366.934,415.944c16.125,0,29.188,13.063,29.188,29.188
				c0,12.168-7.434,22.585-18.006,26.957l0.493,48.284h-23.351l-0.493-48.712c-10.041-4.605-17.02-14.75-17.02-26.529
				C337.746,429.007,350.81,415.944,366.934,415.944z"/>
			<path fill="#FFFFFF" d="M670.06,726.766c9.546,0.403,19.058,1.344,28.598,1.728c-14.228-2.273-28.701-3.195-43.069-2.959
				c-8.686,0.144-17.436,0.662-26.09,1.808c1.981,0.221,3.96,0.459,5.936,0.729C646.827,725.941,659.01,726.299,670.06,726.766z"/>
			<path fill="#FFFFFF" d="M268.666,729.6c10.214-0.491,20.417-0.241,30.592,1.277c4.224-0.836,8.44-1.708,12.649-2.625
				C297.6,726.771,282.918,727.712,268.666,729.6z"/>
			<path d="M366.934,415.944c16.125,0,29.188,13.063,29.188,29.188c0,12.168-7.434,22.585-18.006,26.957l-0.156-15.281H354.61
				l0.156,14.854c-10.041-4.605-17.02-14.75-17.02-26.529C337.746,429.007,350.81,415.944,366.934,415.944z"/>
			<path d="M378.117,472.089l0.493,48.284h-23.351l-0.493-48.712c3.697,1.712,7.822,2.659,12.168,2.659
				C370.904,474.32,374.678,473.529,378.117,472.089z"/>
			<path d="M377.96,456.808l0.156,15.281c-3.438,1.44-7.213,2.231-11.183,2.231c-4.346,0-8.471-0.947-12.168-2.659l-0.156-14.854
				H377.96z"/>
		</g>
		<g>
			<path fill="none" stroke="#000000" stroke-width="20" stroke-miterlimit="10" d="M354.766,471.661
				c-10.041-4.605-17.02-14.75-17.02-26.529c0-16.125,13.063-29.188,29.188-29.188c16.125,0,29.188,13.063,29.188,29.188
				c0,12.168-7.434,22.585-18.006,26.957"/>
			<polygon fill="none" stroke="#000000" stroke-width="20" stroke-miterlimit="10" points="378.117,472.089 378.61,520.373 
				355.259,520.373 354.766,471.661 354.61,456.808 377.96,456.808 			"/>
			<path fill="none" stroke="#6583A9" stroke-width="20" stroke-miterlimit="10" d="M-16.876,740.323
				c56.371-92.949,111.293-183.69,169.399-280.003c27.859-46.167,53.331-88.354,81.189-134.521
				c45.371-76.414,89.149-147.255,133.221-221.844"/>
			<path fill="none" stroke="#6583A9" stroke-width="20" stroke-miterlimit="10" d="M366.934,103.956
				c44.281,73.792,88.061,144.634,132.635,221.048c27.859,46.167,54.127,87.558,80.394,133.724
				c3.185,4.776,6.368,8.756,9.552,13.532c10.348,19.104,21.491,36.614,32.636,55.718c1.592,3.185,4.775,5.572,6.367,8.756
				c8.756,18.308,19.899,33.432,29.451,50.942c3.184,3.98,5.572,7.96,8.756,12.736c0.796,1.592,0.796,2.388,1.592,3.979
				c4.776,6.368,7.96,12.735,11.939,19.899c1.592,2.388,3.185,3.979,4.776,6.368c19.104,33.431,38.207,64.474,56.567,96.133"/>
		</g>
	</g>
	<g id="XMLID_3_" display="inline">
		<polyline fill="none" stroke="#6583A9" stroke-width="20" stroke-miterlimit="10" points="114.198,641.73 114.251,641.73 
			619.021,641.73 		"/>
		<polyline fill="none" stroke="#6583A9" stroke-width="20" stroke-miterlimit="10" points="114.251,641.195 366.61,203.954 
			366.663,203.857 		"/>
		
			<line fill="none" stroke="#6583A9" stroke-width="20" stroke-miterlimit="10" x1="366.61" y1="203.954" x2="619.021" y2="641.73"/>
	</g>
	
		<line display="inline" fill="none" stroke="#6583A9" stroke-width="20" stroke-miterlimit="10" x1="366.934" y1="52.431" x2="-23.485" y2="699.757"/>
	<g display="inline">
		<g>
			<path fill="none" stroke="#FFFFFF" stroke-miterlimit="10" d="M88.932,641.862"/>
		</g>
	</g>
	<g display="inline">
		<g>
			<path fill="#ECA158" d="M377.61,229.092c3.927-1.005,7.932-2.598,11.383-4.536c12.692-7.129,21.512-25.217,16.084-39.526
				c-0.017-0.045-0.034-0.09-0.051-0.135c-5.993-15.8-16.853-24.209-33.75-25.696c-6.361-0.56-12.394,1.547-18.245,3.587
				c-17.998,6.274-29.761,23.729-24.446,43.054c5.311,19.307,24.379,28.255,43.055,24.446c5.205-1.062,10.366-2.295,15.521-3.582
				c-6.203-22.5-12.406-45-18.609-67.5c-4.958,1.665-9.877,3.331-15.063,4.127c3.102-0.417,6.203-0.833,9.304-1.25
				c-2.04,0.215-3.981,0.268-6.025,0.084c3.102,0.417,6.203,0.833,9.305,1.25c-0.95-0.121-1.879-0.331-2.789-0.63
				c8.148,14.352,16.297,28.703,24.445,43.054c0.153-0.413,0.306-0.826,0.459-1.239c-1.177,2.787-2.353,5.574-3.528,8.36
				c0.712-1.593,1.525-3.017,2.547-4.431c-1.824,2.361-3.648,4.722-5.473,7.083c1.105-1.325,2.267-2.453,3.621-3.522
				c-2.361,1.824-4.723,3.648-7.084,5.473c1.475-1.01,2.959-1.814,4.601-2.519c-2.787,1.176-5.573,2.352-8.36,3.528
				c1.811-0.647,3.592-1.099,5.487-1.422c-14.769-11.25-29.537-22.5-44.305-33.75c-0.023,1.312-0.089,2.589-0.236,3.893
				c0.417-3.102,0.833-6.203,1.25-9.304c-0.182,1.024-0.41,1.957-0.761,2.935c1.176-2.787,2.352-5.574,3.528-8.361
				c-0.22,0.534-0.5,1.035-0.838,1.502c1.824-2.361,3.648-4.722,5.473-7.083c-0.326,0.445-0.703,0.843-1.129,1.193
				c2.361-1.824,4.722-3.648,7.083-5.473c-0.742,0.539-1.455,0.936-2.292,1.312c2.787-1.176,5.574-2.352,8.361-3.528
				c-1.413,0.503-2.821,0.832-4.294,1.103c14.351,8.148,28.702,16.297,43.054,24.446c-0.092-0.46-0.185-0.92-0.277-1.38
				c0.417,3.102,0.834,6.203,1.251,9.304c-0.214-1.959-0.176-3.781,0.066-5.736c-0.416,3.102-0.833,6.203-1.25,9.305
				c0.386-2.014,0.934-3.902,1.651-5.823c-1.176,2.787-2.353,5.574-3.528,8.361c1.453-3.381,3.278-6.432,5.51-9.355
				c-1.824,2.361-3.648,4.723-5.473,7.083c1.541-1.866,3.165-3.574,4.988-5.167c-19.5-5.148-39-10.296-58.499-15.444
				c0.359,1.285,0.646,2.554,0.833,3.875c-0.417-3.101-0.833-6.203-1.25-9.304c0.095,1.046,0.117,2.049,0.022,3.096
				c0.417-3.102,0.833-6.203,1.25-9.304c-0.133,0.83-0.328,1.58-0.654,2.354c1.176-2.787,2.352-5.574,3.528-8.361
				c-0.151,0.321-0.331,0.625-0.539,0.912c1.824-2.361,3.648-4.722,5.473-7.083c-0.319,0.396-0.636,0.723-1.026,1.048
				c2.361-1.824,4.723-3.648,7.083-5.473c-0.403,0.274-0.789,0.486-1.236,0.68c2.787-1.176,5.574-2.353,8.36-3.528
				c-0.465,0.153-0.906,0.255-1.39,0.327c3.102-0.417,6.203-0.833,9.304-1.25c-0.506,0.035-0.982,0.03-1.488-0.009
				c3.101,0.417,6.203,0.833,9.304,1.25c-0.894-0.132-1.71-0.37-2.543-0.719c2.787,1.176,5.574,2.352,8.361,3.528
				c-0.689-0.337-1.318-0.717-1.94-1.166c2.361,1.824,4.723,3.648,7.083,5.473c-0.789-0.64-1.463-1.33-2.087-2.132
				c1.824,2.361,3.648,4.723,5.473,7.083c-0.486-0.706-0.885-1.418-1.236-2.2c1.176,2.787,2.353,5.574,3.528,8.361
				c-0.323-0.857-0.549-1.696-0.705-2.598c0.416,3.101,0.833,6.203,1.25,9.304c-0.11-1-0.118-1.955-0.041-2.958
				c-0.416,3.102-0.833,6.203-1.25,9.304c0.2-1.445,0.569-2.782,1.089-4.145c-1.176,2.787-2.352,5.574-3.528,8.361
				c0.887-2.002,2.006-3.786,3.324-5.532c-1.824,2.361-3.648,4.722-5.473,7.083c1.146-1.399,2.356-2.7,3.647-3.967
				c13.609-13.361,13.392-36.106,0-49.497c-13.577-13.578-35.891-13.358-49.497,0c-10.911,10.711-18.142,24.416-18.383,39.914
				c-0.254,16.297,9.043,30.683,22.425,39.233c6.758,4.318,13.914,5.447,21.702,6.057c10.771,0.842,20.489-4.709,28.359-11.289
				c12.843-10.736,14.56-30.32,10.364-45.337c-3.287-11.764-12.646-21.2-24.445-24.446c-12.684-3.488-24.469,0.633-34.053,9.001
				c-17.491,15.271-25.475,38.939-20.94,61.513c1.727,8.598,8.717,16.602,16.084,20.917c8.644,5.063,17.403,5.292,26.969,3.528
				c8.221-1.516,17.714-6.073,23.161-12.61c8.276-9.934,11.854-20.127,12.086-33.079c0.164-9.167-3.813-18.311-10.251-24.749
				c-9.494-9.494-21.39-11.164-34.053-9.001c-9.955,1.7-17.817,6.851-25.532,12.941c-7.92,6.253-12.227,15.44-15.627,24.637
				c-6.633,17.933,7.251,38.292,24.445,43.054c14.404,3.989,28.705,1.044,42.486-3.582c18.068-6.067,29.717-23.891,24.445-43.054
				c-5.146-18.709-24.559-29.066-43.054-24.446c-5.154,1.288-10.315,2.521-15.521,3.582c6.203,22.5,12.406,45,18.609,67.5
				c2.373-0.828,4.693-1.775,7.158-2.294c-3.102,0.417-6.203,0.833-9.305,1.25c0.595-0.113,1.188-0.127,1.782-0.042
				c-11.25-8.565-22.5-17.13-33.75-25.696c0.017,0.045,0.034,0.09,0.051,0.135c5.362-13.175,10.723-26.351,16.085-39.526
				c-0.114,0.064-0.227,0.127-0.341,0.191c2.787-1.176,5.574-2.352,8.361-3.528c-0.879,0.325-1.773,0.584-2.681,0.816
				c-18.476,4.727-29.434,24.921-24.446,43.054C339.68,223.277,359.139,233.816,377.61,229.092L377.61,229.092z"/>
		</g>
	</g>
	<g display="inline">
		<g>
			<path fill="#ECA158" d="M632.481,584.878c-4.926,5.774-10.591,10.72-16.581,15.358c2.361-1.824,4.723-3.648,7.084-5.473
				c-11.5,8.75-23.504,16.736-34.678,25.931c-11.982,9.861-12.842,29.833-5.473,42.414c7.717,13.174,24.614,20.763,39.526,16.085
				c19.473-6.109,38.456-14.802,56.117-25.019c13.567-7.849,20.232-24.447,16.085-39.526c-4.82-17.524-25.003-30.647-43.055-24.445
				c-27.619,9.49-58.391,29.065-66.232,59.069c-2.383,9.118-1.256,18.803,3.528,26.97c3.111,5.26,7.297,9.445,12.557,12.557
				c5.459,3.166,11.348,4.759,17.665,4.778c13.365,1.776,27.025-4.04,38.761-9.588c8.321-3.934,15.935-9.202,24.273-13.1
				c-17.138-6.973-34.276-13.945-51.415-20.917c0.459,1.538,0.805,3.032,1.065,4.616c-0.417-3.102-0.834-6.203-1.25-9.304
				c0.274,2.662,0.235,5.225-0.035,7.886c0.416-3.102,0.833-6.203,1.25-9.305c-0.491,3.461-1.29,6.816-2.225,10.182
				c-5.104,18.374,6.096,38.007,24.445,43.055c18.421,5.066,37.951-6.075,43.055-24.445c3.747-13.492,5.258-27.662,1.194-41.294
				c-2.618-8.782-8.123-16.253-16.085-20.917c-11.559-6.771-23.706-5.434-35.33,0c-9.691,4.53-18.493,10.723-28.351,14.937
				c2.787-1.176,5.574-2.352,8.361-3.528c-3.479,1.397-6.969,2.499-10.684,3.046c3.101-0.417,6.202-0.833,9.304-1.25
				c-2.147,0.212-4.194,0.211-6.335-0.073c11.25,14.769,22.5,29.536,33.75,44.305c0.289-1.106,0.629-2.159,1.036-3.229
				c-1.177,2.787-2.353,5.574-3.528,8.36c1.156-2.642,2.637-5.008,4.381-7.301c-1.825,2.361-3.649,4.723-5.474,7.084
				c3.189-3.932,6.879-7.292,10.877-10.383c-2.36,1.824-4.722,3.648-7.083,5.473c6.256-4.664,13-8.56,20.155-11.672
				c-2.787,1.176-5.574,2.353-8.361,3.528c1.761-0.735,3.533-1.42,5.339-2.04c-8.99-21.324-17.98-42.647-26.97-63.972
				c-9.691,5.606-19.709,10.594-30.015,14.97c2.787-1.177,5.573-2.353,8.36-3.528c-5.826,2.422-11.721,4.632-17.742,6.521
				c11.352,19.5,22.702,38.999,34.054,58.499c1.241-1.022,2.493-2.028,3.757-3.022c-2.361,1.824-4.723,3.648-7.084,5.473
				c16.022-12.362,34.245-22.729,47.502-38.267c6.216-7.286,10.251-14.892,10.251-24.749c0-9.245-3.717-18.215-10.251-24.749
				C669.292,572.192,644.875,570.352,632.481,584.878L632.481,584.878z"/>
		</g>
	</g>
	<g display="inline">
		<g>
			<path fill="#ECA158" d="M119.973,610.443c-13.528,1.226-27.064,2.356-40.593,3.582c5.888,21.74,11.777,43.48,17.665,65.222
				c0.742-0.356,1.49-0.688,2.248-1.009c-2.787,1.177-5.574,2.353-8.361,3.528c7.901-3.22,16.382-5.691,23.571-10.35
				c19.019-12.323,26.612-34.705,15.414-55.291c-13.16-24.192-45.438-21.709-68.199-16.371
				c-15.078,3.536-25.696,18.638-25.696,33.75c0,19.079,15.921,35,35,35c6.368,0,12.735,0,19.103,0
				c15.566,0,29.62-10.682,33.75-25.695c3.978-14.461-2.22-32.462-16.085-39.526c-10.251-5.223-20.746-7.213-32.033-4.406
				c-8.167,2.03-13.602,5.832-19.932,11.072c-14.713,12.181-12.537,36.961,0,49.498c6.534,6.534,15.503,10.251,24.749,10.251
				c9.97,0,17.325-4.105,24.749-10.251c0.175-0.145,0.35-0.289,0.524-0.435c-2.361,1.824-4.723,3.649-7.083,5.474
				c0.529-0.371,1.092-0.683,1.687-0.938c-2.787,1.177-5.574,2.353-8.361,3.528c0.732-0.319,1.491-0.553,2.277-0.701
				c-3.102,0.417-6.203,0.834-9.305,1.251c0.847-0.162,1.697-0.187,2.552-0.072c-3.102-0.417-6.203-0.834-9.304-1.25
				c0.427,0.107,0.854,0.215,1.28,0.322c-2.787-1.176-5.574-2.352-8.36-3.528c0.41,0.209,0.821,0.419,1.231,0.628
				c5.888-21.74,11.777-43.481,17.665-65.222c-6.368,0-12.735,0-19.103,0c3.102,22.917,6.203,45.833,9.304,68.75
				c2.174-0.51,4.387-0.829,6.597-1.136c-3.102,0.417-6.203,0.834-9.305,1.25c5.852-0.761,11.881-1.454,17.78-0.898
				c-3.101-0.416-6.203-0.833-9.304-1.25c0.922,0.126,1.787,0.283,2.659,0.609c-2.787-1.176-5.574-2.352-8.361-3.528
				c0.142,0.077,0.283,0.153,0.425,0.23c-2.361-1.824-4.723-3.648-7.083-5.473c0.227,0.25,0.455,0.5,0.682,0.75
				c-1.824-2.361-3.648-4.723-5.473-7.084c0.369,0.441,0.675,0.922,0.918,1.442c-1.176-2.787-2.353-5.574-3.528-8.36
				c0.201,0.435,0.325,0.891,0.37,1.368c-0.417-3.102-0.833-6.203-1.25-9.305c-0.001,0.219-0.002,0.438-0.003,0.657
				c0.417-3.102,0.833-6.203,1.25-9.305c-0.045,0.44-0.161,0.861-0.347,1.263c1.176-2.786,2.352-5.573,3.528-8.36
				c-0.201,0.431-0.453,0.829-0.755,1.196c1.824-2.36,3.648-4.722,5.473-7.083c-0.556,0.622-1.128,1.15-1.775,1.678
				c2.361-1.824,4.723-3.648,7.083-5.473c-2.227,1.604-4.668,2.773-7.178,3.863c2.787-1.176,5.574-2.352,8.361-3.528
				c-6.45,2.7-13.061,4.997-19.376,8.024C47.729,625.51,41.73,644.148,45.63,658.33c3.849,13.99,18.441,27.082,33.75,25.695
				c13.528-1.226,27.064-2.356,40.593-3.582c9.588-0.868,17.735-3.238,24.749-10.251c6.534-6.534,10.251-15.504,10.251-24.749
				C154.973,627.669,139.005,608.72,119.973,610.443L119.973,610.443z"/>
		</g>
	</g>
</g>
<g id="old1" display="none">
	
		<line display="inline" fill="none" stroke="#ECA158" stroke-width="120" stroke-miterlimit="10" x1="367.109" y1="204.828" x2="111.854" y2="639.73"/>
	
		<line display="inline" fill="none" stroke="#ECA158" stroke-width="120" stroke-miterlimit="10" x1="111.854" y1="640.929" x2="614.104" y2="638.277"/>
	
		<line display="inline" fill="none" stroke="#ECA158" stroke-width="120" stroke-miterlimit="10" x1="614.247" y1="638.277" x2="366.61" y2="203.954"/>
	
		<line display="inline" fill="none" stroke="#2884E8" stroke-width="120" stroke-miterlimit="10" x1="367.109" y1="49.683" x2="-23.485" y2="699.757"/>
	
		<line display="inline" fill="none" stroke="#2884E8" stroke-width="120" stroke-miterlimit="10" x1="367.109" y1="49.683" x2="757.354" y2="700.406"/>
	
		<line display="inline" fill="none" stroke="#2884E8" stroke-width="120" stroke-miterlimit="10" x1="757.354" y1="700.406" x2="-23.485" y2="699.757"/>
	
		<circle display="inline" fill="#2884E8" stroke="#2884E8" stroke-width="0.5" stroke-miterlimit="10" cx="367.109" cy="49.683" r="59.791"/>
	
		<circle display="inline" fill="#2884E8" stroke="#2884E8" stroke-width="0.5" stroke-miterlimit="10" cx="-23.485" cy="699.757" r="60.044"/>
	
		<circle display="inline" fill="#2884E8" stroke="#2884E8" stroke-width="0.5" stroke-miterlimit="10" cx="757.354" cy="700.406" r="60.212"/>
</g>
<g id="konstruktion" display="none">
	
		<circle display="inline" fill="none" stroke="#000000" stroke-width="3" stroke-miterlimit="10" cx="372.566" cy="374.574" r="427.569"/>
	
		<circle display="inline" fill="none" stroke="#000000" stroke-width="3" stroke-miterlimit="10" cx="3.167" cy="590.015" r="740.399"/>
	
		<line display="inline" fill="none" stroke="#000000" stroke-width="3" stroke-miterlimit="10" x1="3.566" y1="590.074" x2="743.566" y2="590.074"/>
	
		<circle display="inline" fill="none" stroke="#000000" stroke-width="3" stroke-miterlimit="10" cx="743.566" cy="590.074" r="739.533"/>
	
		<circle display="inline" fill="none" stroke="#000000" stroke-width="3" stroke-miterlimit="10" cx="372.566" cy="-52.995" r="743.052"/>
	
		<line display="inline" fill="none" stroke="#000000" stroke-width="3" stroke-miterlimit="10" x1="372.566" y1="-52.995" x2="4.033" y2="590.074"/>
	
		<line display="inline" fill="none" stroke="#000000" stroke-width="3" stroke-miterlimit="10" x1="372.566" y1="-52.995" x2="741.962" y2="590.016"/>
	
		<line display="inline" fill="none" stroke="#000000" stroke-width="3" stroke-miterlimit="10" x1="84.566" y1="547.074" x2="662.566" y2="547.074"/>
	
		<line display="inline" fill="none" stroke="#000000" stroke-width="3" stroke-miterlimit="10" x1="372.785" y1="44.395" x2="84.931" y2="546.685"/>
	
		<line display="inline" fill="none" stroke="#000000" stroke-width="3" stroke-miterlimit="10" x1="372.785" y1="44.395" x2="661.314" y2="546.639"/>
	
		<line display="inline" fill="none" stroke="#000000" stroke-width="3" stroke-miterlimit="10" x1="187.566" y1="494.074" x2="557.566" y2="494.074"/>
	
		<line display="inline" fill="none" stroke="#000000" stroke-width="3" stroke-miterlimit="10" x1="372.066" y1="171.886" x2="187.849" y2="493.334"/>
	
		<line display="inline" fill="none" stroke="#000000" stroke-width="3" stroke-miterlimit="10" x1="372.066" y1="171.886" x2="556.715" y2="493.305"/>
</g>
<g id="konstruktion2">
	<g id="XMLID_4_">
		<g>
			<path fill="#2488B3" d="M552.72,547.07V546.3L368.07,224.88L183.85,546.33v0.74H552.72z M368.57,0l369.4,643.01L0.04,643.07
				L368.57,0z"/>
			<path fill="#185B78" d="M737.97,643.01v0.03c-109.221,63.19-233.95,97.93-369.19,97.93c-134.2,0-260.1-35.609-368.74-97.899
				L737.97,643.01z"/>
			<path fill="#185B78" d="M737.97,643.01L368.57,0C590.79,127.78,737.97,368.28,737.97,643.01z"/>
			<polygon fill="#30B5EF" points="552.72,546.3 552.72,547.07 183.85,547.07 183.85,546.33 368.07,224.88 			"/>
			<path fill="#185B78" d="M368.57,0L0.04,643.07C0.04,369.14,147.25,127.8,368.57,0z"/>
		</g>
		<g>
		</g>
	</g>
	<circle cx="367.447" cy="506.855" r="30.719"/>
	<path fill="none" stroke="#000000" stroke-width="9" stroke-miterlimit="10" d="M737.97,643.05"/>
	<path fill="none" stroke="#000000" stroke-width="9" stroke-miterlimit="10" d="M0,643.05"/>
</g>
<g id="Ebene_7">
	<rect x="336.566" y="392.574" width="62" height="114"/>
	<circle cx="368.786" cy="373.159" r="61.525"/>
</g>
<g id="schluessel" display="none">
	<g display="inline">
		<g>
			<g enable-background="new    ">
				<g>
					<polygon points="360.879,447.605 356.976,443.553 389.796,441.136 393.7,445.188 					"/>
				</g>
				<g>
					<polygon points="393.7,445.188 389.796,441.136 385.26,373.542 389.164,377.595 					"/>
				</g>
				<g>
					<polygon fill="#333333" points="360.879,447.605 356.976,443.553 352.431,375.96 356.334,380.013 					"/>
				</g>
				<g>
					<polygon fill="#3C3C3C" points="356.334,380.013 352.431,375.96 385.26,373.542 389.164,377.595 					"/>
				</g>
				<g>
					<polygon fill="#585858" points="356.334,380.013 389.164,377.595 393.7,445.188 360.879,447.605 					"/>
				</g>
				<g>
					<polygon points="358.094,450.805 354.19,446.752 349.249,373.195 353.152,377.248 					"/>
				</g>
				<g>
					<polygon points="353.152,377.248 349.249,373.195 388.037,370.344 391.94,374.396 					"/>
				</g>
				<g>
					<path d="M353.152,377.248l38.788-2.852l4.942,73.557l-38.788,2.852L353.152,377.248z M393.7,445.188l-4.536-67.594
						l-32.829,2.418l4.545,67.593L393.7,445.188"/>
				</g>
			</g>
		</g>
	</g>
	<g display="inline">
		<g>
			<g enable-background="new    ">
				<g enable-background="new    ">
					<defs>
						<path id="SVGID_1_" enable-background="new    " d="M400.804,307.5c1.302,1.351,2.603,2.702,3.903,4.053
							c5.936,6.163,9.95,14.263,10.948,23.426c2.409,22.109-13.641,42.175-35.771,44.724l-3.903-4.054
							c22.13-2.548,38.179-22.614,35.771-44.724C410.754,321.762,406.74,313.662,400.804,307.5z"/>
					</defs>
					<clipPath id="SVGID_2_">
						<use xlink:href="#SVGID_1_"  overflow="visible"/>
					</clipPath>
					<g clip-path="url(#SVGID_2_)" enable-background="new    ">
						<path d="M379.885,379.703l-3.903-4.054c0.621-0.071,1.237-0.156,1.849-0.255l3.903,4.053
							C381.123,379.546,380.506,379.631,379.885,379.703"/>
						<path d="M381.734,379.447l-3.903-4.053c2.095-0.339,4.13-0.836,6.094-1.477l3.904,4.054
							C385.864,378.612,383.829,379.108,381.734,379.447"/>
						<path d="M387.829,377.972l-3.904-4.054c2.334-0.761,4.568-1.726,6.685-2.871l3.903,4.053
							C392.396,376.246,390.162,377.21,387.829,377.972"/>
						<path d="M394.512,375.101l-3.903-4.053c14.108-7.633,22.978-23.285,21.144-40.122c-0.998-9.164-5.013-17.264-10.948-23.426
							l3.903,4.053c5.936,6.163,9.95,14.263,10.948,23.426C417.49,351.815,408.621,367.467,394.512,375.101"/>
					</g>
				</g>
				<g enable-background="new    ">
					<defs>
						<path id="SVGID_3_" enable-background="new    " d="M346.326,367.65c-1.301-1.351-2.603-2.702-3.903-4.053
							c8.384,8.706,20.602,13.545,33.56,12.052l3.903,4.054C366.927,381.195,354.71,376.356,346.326,367.65z"/>
					</defs>
					<clipPath id="SVGID_4_">
						<use xlink:href="#SVGID_3_"  overflow="visible"/>
					</clipPath>
					<g clip-path="url(#SVGID_4_)" enable-background="new    ">
						<path d="M346.326,367.65l-3.904-4.053c4.233,4.395,9.442,7.804,15.23,9.911l3.903,4.053
							C355.767,375.454,350.558,372.045,346.326,367.65"/>
						<path d="M361.555,377.562l-3.903-4.053c2.468,0.898,5.041,1.56,7.688,1.96l3.903,4.053
							C366.596,379.121,364.023,378.46,361.555,377.562"/>
						<path d="M369.244,379.521l-3.903-4.053c2.09,0.316,4.228,0.469,6.396,0.447l3.903,4.053
							C373.471,379.99,371.334,379.838,369.244,379.521"/>
						<path d="M375.639,379.969l-3.903-4.053c1.403-0.015,2.82-0.102,4.246-0.267l3.903,4.054
							C378.459,379.867,377.042,379.955,375.639,379.969"/>
					</g>
				</g>
				<g enable-background="new    ">
					<defs>
						<path id="SVGID_5_" enable-background="new    " d="M342.423,363.599c-2.318-2.407-4.344-5.11-6.012-8.057
							c0.638,0.652,1.275,1.305,1.913,1.957c0.075,0.077,0.175,0.18,0.25,0.257c0.075,0.077,0.175,0.179,0.25,0.255
							c0.074,0.076,0.173,0.177,0.248,0.253c0.145,0.148,0.338,0.346,0.483,0.495c0.07,0.072,0.164,0.168,0.234,0.24
							c0.134,0.137,0.329,0.306,0.447,0.457c0.049,0.063,0.08,0.167,0.114,0.239c0.583,1.216,1.325,2.457,2.204,3.688
							c-0.941-1.318-1.613-2.456-2.318-3.927c1.682,3.001,3.735,5.751,6.09,8.196C345.156,366.436,343.594,364.815,342.423,363.599z
							 M341.035,362.028l0.093,0.088l0.097,0.091l0.1,0.093l0.102,0.096l0.104,0.097l0.106,0.099l0.107,0.099l0.108,0.1l0.108,0.099
							l0.107,0.099l0.107,0.098l0.105,0.096l0.104,0.094l0.102,0.092l0.099,0.089l0.096,0.085l-0.096-0.085l-0.099-0.089
							l-0.102-0.092l-0.104-0.094l-0.105-0.096l-0.107-0.098l-0.107-0.099l-0.108-0.099l-0.108-0.1l-0.107-0.099l-0.106-0.099
							l-0.104-0.097l-0.102-0.096l-0.1-0.093l-0.097-0.091L341.035,362.028"/>
					</defs>
					<clipPath id="SVGID_6_">
						<use xlink:href="#SVGID_5_"  overflow="visible"/>
					</clipPath>
					<g clip-path="url(#SVGID_6_)" enable-background="new    ">
						<path fill="#353535" d="M346.326,367.65l-3.904-4.053c-5.935-6.163-9.95-14.263-10.948-23.426
							c-1.834-16.836,7.036-32.488,21.144-40.122l3.903,4.053c-14.108,7.633-22.978,23.285-21.144,40.122
							C336.375,353.388,340.39,361.488,346.326,367.65"/>
					</g>
				</g>
				<g enable-background="new    ">
					<defs>
						<path id="SVGID_7_" enable-background="new    " d="M336.412,355.542c-0.026-0.047-0.052-0.093-0.079-0.14
							c1.301,1.351,2.603,2.702,3.904,4.053c-0.638-0.652-1.275-1.304-1.912-1.957c-0.489-0.5-0.978-1-1.466-1.499
							C336.725,355.862,336.527,355.696,336.412,355.542z"/>
					</defs>
					<clipPath id="SVGID_8_">
						<use xlink:href="#SVGID_7_"  overflow="visible"/>
					</clipPath>
					<g clip-path="url(#SVGID_8_)" enable-background="new    ">
						<path fill="#353535" d="M346.326,367.65l-3.904-4.053c-5.935-6.163-9.95-14.263-10.948-23.426
							c-1.834-16.836,7.036-32.488,21.144-40.122l3.903,4.053c-14.108,7.633-22.978,23.285-21.144,40.122
							C336.375,353.388,340.39,361.488,346.326,367.65"/>
					</g>
				</g>
				<g enable-background="new    ">
					<defs>
						<path id="SVGID_9_" enable-background="new    " d="M336.333,355.403c-1.278-2.281-2.343-4.707-3.163-7.253
							c1.301,1.351,2.603,2.702,3.903,4.053c0.82,2.547,1.884,4.973,3.163,7.253c-0.651-0.675-1.301-1.351-1.952-2.026
							c-0.153-0.159-0.358-0.371-0.511-0.53c-0.076-0.079-0.177-0.184-0.253-0.262c-0.075-0.078-0.174-0.181-0.249-0.259
							c-0.145-0.15-0.338-0.352-0.483-0.502C336.652,355.734,336.451,355.561,336.333,355.403z M336.345,355.412l0.188,0.169
							l0.194,0.174l0.2,0.179l0.205,0.184l0.209,0.187l0.212,0.189l0.214,0.191l0.215,0.192l0.215,0.191l0.214,0.19l0.213,0.189
							l0.21,0.186l0.206,0.183l0.202,0.179l0.196,0.173l0.189,0.167l-0.189-0.167l-0.196-0.173l-0.202-0.179l-0.206-0.183
							l-0.21-0.186l-0.213-0.189l-0.214-0.19l-0.215-0.191l-0.215-0.192l-0.214-0.191l-0.212-0.189l-0.209-0.187l-0.205-0.184
							l-0.2-0.179l-0.194-0.174L336.345,355.412"/>
					</defs>
					<clipPath id="SVGID_10_">
						<use xlink:href="#SVGID_9_"  overflow="visible"/>
					</clipPath>
					<g clip-path="url(#SVGID_10_)" enable-background="new    ">
						<path fill="#353535" d="M346.326,367.65l-3.904-4.053c-5.935-6.163-9.95-14.263-10.948-23.426
							c-1.834-16.836,7.036-32.488,21.144-40.122l3.903,4.053c-14.108,7.633-22.978,23.285-21.144,40.122
							C336.375,353.388,340.39,361.488,346.326,367.65"/>
					</g>
				</g>
				<g enable-background="new    ">
					<defs>
						<path id="SVGID_11_" enable-background="new    " d="M337.074,352.202c-1.301-1.351-2.603-2.702-3.903-4.053
							c0.563,0.581,1.127,1.163,1.691,1.744c0.732,0.755,1.465,1.511,2.199,2.266C337.064,352.173,337.069,352.188,337.074,352.202z
							"/>
					</defs>
					<clipPath id="SVGID_12_">
						<use xlink:href="#SVGID_11_"  overflow="visible"/>
					</clipPath>
					<g clip-path="url(#SVGID_12_)" enable-background="new    ">
						<path fill="#353535" d="M346.326,367.65l-3.904-4.053c-5.935-6.163-9.95-14.263-10.948-23.426
							c-1.834-16.836,7.036-32.488,21.144-40.122l3.903,4.053c-14.108,7.633-22.978,23.285-21.144,40.122
							C336.375,353.388,340.39,361.488,346.326,367.65"/>
					</g>
				</g>
				<g enable-background="new    ">
					<defs>
						<path id="SVGID_13_" enable-background="new    " d="M375.411,295.333c9.832,0.864,18.798,5.318,25.393,12.166l3.903,4.053
							c-6.595-6.847-15.561-11.301-25.393-12.165C378.013,298.035,376.711,296.685,375.411,295.333z"/>
					</defs>
					<clipPath id="SVGID_14_">
						<use xlink:href="#SVGID_13_"  overflow="visible"/>
					</clipPath>
					<g clip-path="url(#SVGID_14_)" enable-background="new    ">
						<path fill="#3D3D3D" d="M375.394,299.234l-3.903-4.053c2.168-0.022,4.306,0.131,6.396,0.447l3.903,4.053
							C379.7,299.366,377.562,299.213,375.394,299.234"/>
						<path fill="#3F3F3F" d="M381.79,299.682l-3.903-4.053c2.647,0.4,5.221,1.062,7.688,1.96l3.903,4.053
							C387.01,300.744,384.437,300.082,381.79,299.682"/>
						<path fill="#414141" d="M389.478,301.642l-3.903-4.053c5.788,2.107,10.997,5.516,15.229,9.911l3.903,4.053
							C400.475,307.158,395.266,303.749,389.478,301.642"/>
					</g>
				</g>
				<g enable-background="new    ">
					<defs>
						<path id="SVGID_15_" enable-background="new    " d="M367.245,295.448c2.766-0.319,5.498-0.349,8.166-0.115
							c1.301,1.352,2.603,2.702,3.903,4.053l0,0c-2.668-0.234-5.4-0.204-8.166,0.114
							C369.977,298.285,368.416,296.664,367.245,295.448z"/>
					</defs>
					<clipPath id="SVGID_16_">
						<use xlink:href="#SVGID_15_"  overflow="visible"/>
					</clipPath>
					<g clip-path="url(#SVGID_16_)" enable-background="new    ">
						<path fill="#3B3B3B" d="M371.148,299.5l-3.903-4.053c1.426-0.165,2.843-0.252,4.246-0.266l3.903,4.053
							C373.991,299.249,372.574,299.336,371.148,299.5"/>
						<path fill="#3D3D3D" d="M375.394,299.234l-3.903-4.053c2.168-0.022,4.306,0.131,6.396,0.447l3.903,4.053
							C379.7,299.366,377.562,299.213,375.394,299.234"/>
					</g>
				</g>
				<g enable-background="new    ">
					<defs>
						<path id="SVGID_17_" enable-background="new    " d="M402.964,305.422l3.903,4.053c-9.004-9.349-22.124-14.544-36.043-12.941
							l-3.903-4.053C380.84,290.877,393.96,296.072,402.964,305.422z"/>
					</defs>
					<clipPath id="SVGID_18_">
						<use xlink:href="#SVGID_17_"  overflow="visible"/>
					</clipPath>
					<g clip-path="url(#SVGID_18_)" enable-background="new    ">
						<path d="M370.825,296.533l-3.903-4.053c1.532-0.176,3.054-0.271,4.563-0.286l3.903,4.053
							C373.879,296.263,372.357,296.356,370.825,296.533"/>
						<path d="M375.387,296.247l-3.903-4.053c2.329-0.023,4.625,0.141,6.87,0.48l3.903,4.053
							C380.012,296.388,377.716,296.224,375.387,296.247"/>
						<path d="M382.257,296.728l-3.903-4.053c2.844,0.43,5.607,1.14,8.258,2.105l3.903,4.053
							C387.865,297.868,385.101,297.158,382.257,296.728"/>
						<path d="M390.515,298.833l-3.903-4.053c6.215,2.262,11.808,5.923,16.353,10.642l3.903,4.053
							C402.324,304.756,396.73,301.095,390.515,298.833"/>
					</g>
				</g>
				<g enable-background="new    ">
					<defs>
						<path id="SVGID_19_" enable-background="new    " d="M332.935,324.215c0.756-2.515,1.751-4.937,2.963-7.236
							c1.347,1.264,2.696,2.526,4.043,3.79c-0.047,0.088-0.093,0.175-0.14,0.263c-1.425,0.624-2.598,1.196-3.92,1.916
							c1.322-0.72,2.495-1.292,3.92-1.916l0,0c-3.635,6.9-5.327,14.903-4.423,23.193c0.299,2.748,0.87,5.401,1.683,7.935
							c-0.563-0.58-1.126-1.16-1.689-1.74c-1.514-1.549-1.54-1.576-2.201-2.27c-0.82-2.547-1.396-5.214-1.697-7.978
							c1.296,1.327,2.594,2.653,3.89,3.98c-1.296-1.327-2.593-2.653-3.89-3.98C330.872,334.645,331.423,329.245,332.935,324.215
							c0.184,0.212,0.435,0.502,0.799,1.248c0.095,0.195,0.22,0.457,0.307,0.655c0.045,0.104,0.106,0.242,0.151,0.346
							c0.251,0.583,0.485,1.173,0.736,1.756c0.083,0.193,0.193,0.452,0.283,0.642c0.042,0.088,0.121,0.197,0.139,0.292
							c0.013,0.067-0.038,0.155-0.054,0.221c-0.278,1.136-0.518,2.375-0.712,3.686c0.194-1.311,0.434-2.55,0.712-3.686
							c0.016-0.066,0.067-0.154,0.054-0.221c-0.037-0.197-0.2-0.422-0.28-0.605c-0.45-1.027-0.843-2.078-1.336-3.086
							C333.369,324.718,333.118,324.427,332.935,324.215z M331.475,332.074l-0.004-0.003l-0.003-0.004l-0.004-0.004l-0.004-0.004
							l-0.004-0.004l-0.004-0.004l-0.004-0.004l-0.004-0.004l-0.004-0.004l-0.004-0.004l-0.004-0.004l-0.004-0.004l-0.004-0.004
							l-0.004-0.004l-0.003-0.004l-0.004-0.003l0.18,0.054l0.186,0.056l0.192,0.058l0.197,0.059l0.201,0.06l0.205,0.062l0.207,0.062
							l0.208,0.062l0.208,0.063l0.208,0.062l0.207,0.062l0.205,0.061l0.201,0.06l0.197,0.059l0.192,0.057l0.185,0.056l-0.185-0.056
							l-0.192-0.057l-0.197-0.059l-0.201-0.06l-0.205-0.061l-0.207-0.062l-0.208-0.062l-0.208-0.063l-0.208-0.062l-0.207-0.062
							l-0.205-0.062l-0.201-0.06l-0.197-0.059l-0.192-0.058l-0.186-0.056l-0.18-0.054l0.004,0.003l0.003,0.004l0.004,0.004
							l0.004,0.004l0.004,0.004l0.004,0.004l0.004,0.004l0.004,0.004l0.004,0.004l0.004,0.004l0.004,0.004l0.004,0.004l0.004,0.004
							l0.004,0.004l0.003,0.004L331.475,332.074"/>
					</defs>
					<clipPath id="SVGID_20_">
						<use xlink:href="#SVGID_19_"  overflow="visible"/>
					</clipPath>
					<g clip-path="url(#SVGID_20_)" enable-background="new    ">
						<path fill="#353535" d="M346.326,367.65l-3.904-4.053c-5.935-6.163-9.95-14.263-10.948-23.426
							c-1.834-16.836,7.036-32.488,21.144-40.122l3.903,4.053c-14.108,7.633-22.978,23.285-21.144,40.122
							C336.375,353.388,340.39,361.488,346.326,367.65"/>
					</g>
				</g>
				<g enable-background="new    ">
					<defs>
						<path id="SVGID_21_" enable-background="new    " d="M335.897,316.979c6.059-11.502,17.515-19.938,31.347-21.531l3.903,4.053
							c-13.726,1.581-25.113,9.901-31.208,21.268C338.593,319.505,337.244,318.243,335.897,316.979z"/>
					</defs>
					<clipPath id="SVGID_22_">
						<use xlink:href="#SVGID_21_"  overflow="visible"/>
					</clipPath>
					<g clip-path="url(#SVGID_22_)" enable-background="new    ">
						<path fill="#353535" d="M346.326,367.65l-3.904-4.053c-5.935-6.163-9.95-14.263-10.948-23.426
							c-1.834-16.836,7.036-32.488,21.144-40.122l3.903,4.053c-14.108,7.633-22.978,23.285-21.144,40.122
							C336.375,353.388,340.39,361.488,346.326,367.65"/>
						<path fill="#373737" d="M356.521,304.103l-3.903-4.053c2.116-1.145,4.351-2.11,6.684-2.871l3.904,4.053
							C360.872,301.993,358.637,302.958,356.521,304.103"/>
						<path fill="#393939" d="M363.206,301.232l-3.904-4.053c1.964-0.641,4-1.137,6.094-1.476l3.903,4.053
							C367.205,300.095,365.17,300.591,363.206,301.232"/>
						<path fill="#3B3B3B" d="M369.299,299.756l-3.903-4.053c0.611-0.099,1.228-0.184,1.849-0.255l3.903,4.053
							C370.527,299.572,369.911,299.657,369.299,299.756"/>
					</g>
				</g>
				<g>
					<path fill="#585858" d="M371.148,299.5c22.131-2.549,42.1,13.369,44.508,35.479c2.409,22.109-13.641,42.175-35.771,44.724
						c-22.13,2.549-42.1-13.37-44.508-35.479C332.969,322.115,349.018,302.049,371.148,299.5z"/>
				</g>
				<g>
					<path d="M370.825,296.533c23.772-2.738,45.215,14.355,47.802,38.104c2.587,23.749-14.646,45.296-38.418,48.033
						c-23.771,2.738-45.214-14.354-47.802-38.104C329.82,320.818,347.054,299.271,370.825,296.533z M379.885,379.703
						c22.13-2.549,38.18-22.615,35.771-44.724c-2.408-22.109-22.377-38.027-44.508-35.479c-22.13,2.549-38.179,22.615-35.771,44.724
						C337.786,366.333,357.755,382.252,379.885,379.703"/>
				</g>
				<g enable-background="new    ">
					<defs>
						<path id="SVGID_23_" enable-background="new    " d="M344.165,369.729c-1.301-1.351-2.602-2.702-3.903-4.053
							c-6.374-6.619-10.686-15.319-11.758-25.162c-2.587-23.749,14.647-45.296,38.418-48.034l3.903,4.053
							c-23.771,2.737-41.005,24.285-38.418,48.033C333.479,354.41,337.791,363.11,344.165,369.729z"/>
					</defs>
					<clipPath id="SVGID_24_">
						<use xlink:href="#SVGID_23_"  overflow="visible"/>
					</clipPath>
					<g clip-path="url(#SVGID_24_)" enable-background="new    ">
						<path d="M344.166,369.729l-3.904-4.053c-6.374-6.619-10.686-15.319-11.758-25.162c-1.97-18.084,7.554-34.892,22.705-43.09
							l3.903,4.053c-15.151,8.198-24.675,25.006-22.705,43.09C333.479,354.41,337.791,363.11,344.166,369.729"/>
						<path d="M355.112,301.477l-3.903-4.053c2.273-1.23,4.673-2.266,7.18-3.083l3.903,4.053
							C359.785,299.21,357.385,300.247,355.112,301.477"/>
						<path d="M362.292,298.393l-3.903-4.053c2.11-0.688,4.296-1.222,6.547-1.585l3.903,4.053
							C366.588,297.171,364.402,297.705,362.292,298.393"/>
						<path d="M368.838,296.808l-3.903-4.053c0.657-0.106,1.319-0.198,1.986-0.275l3.903,4.053
							C370.158,296.61,369.495,296.702,368.838,296.808"/>
					</g>
				</g>
			</g>
		</g>
	</g>
</g>
</svg>
